<svg width="396" height="121" viewBox="0 0 370 113" fill="none" xmlns="http://www.w3.org/2000/svg">
    <g
        transform="matrix(1.165175199508667,0,0,1.165175199508667,-8.029221875410032,-1.307319574395304)"
        fill="#0081c6">
        <g>
            <path fill="#0081c6"
                d="M64.008,72.381c4.002-3.149,12.23-11.582,15.089-21.179c-6.511-8.01-33.912-42.187-40.238-50.08   C38.212,8.613,31.63,24.377,20.21,29.646c-5.247,2.56-10.477,4.156-12.467,4.721l39.077,47.32   C51.235,80.263,59.958,75.56,64.008,72.381z"></path>
            <g>
                <g>
                    <path fill="#0081c6"
                        d="M90.405,75.352c-6.5,3.781-13.381,7.281-20.674,9.929c-8.632,3.134-19.05,6.681-22.386,7.664v5.127     l43.046-15.479L90.405,75.352z"></path>
                    <polygon fill="#0081c6"
                        points="6.891,35.865 6.891,50.088 45.703,97.945 45.736,82.902    "></polygon>
                </g>
                <path fill="#0081c6"
                    d="M88.717,70.42c-5.018,3.936-11.386,7.921-18.278,11.363c-6.521,3.266-20.879,7.668-23.093,8.339v1.144    c3.686-1.09,13.036-3.898,21.237-7.013c9.104-3.457,22.12-11.628,22.12-11.628L88.717,70.42z"></path>
            </g>
            <path fill="#0081c6"
                d="M80.877,50.835l-0.114,0.403c-2.851,10.142-11.25,18.858-15.762,22.409   c-4.225,3.319-13.009,8.054-17.655,9.561v2.168c6.53-2.034,15.656-6.36,20.721-9.922c8.699-6.128,17.195-14.63,22.419-22.404   l0.047,0.036C84.648,46.442,51.938,9.001,49.818,6.309c-0.719,1.357-1.368,2.265-2.422,2.887   c10.832,13.508,28.598,35.647,33.217,41.314L80.877,50.835z"></path>
            <path fill="#0081c6"
                d="M87.321,59.925c0,0-11.588,12.1-18.328,16.846c-5.696,4.008-14.5,7.942-21.647,10.168v1.498   c0.692-0.212,1.838-0.566,3.268-1.021c5.266-1.677,14.41-4.722,19.106-7.072c9.305-4.648,17.623-10.274,22.834-15.386   c0.054-0.053,0.106-0.106,0.161-0.16L87.321,59.925z"></path>
        </g>
    </g>
    <g
        transform="matrix(1.1099607944488525,0,0,1.1099607944488525,118.2646895576558,34.525971916920135)"
        fill="#48466d">
        <path
            d="M31.953 38.5937 l6.5625 0 l0 -27.422 l-6.5625 9.6094 l0 17.813 z M38.516 1.4059999999999988 l-7.0313 0 l-11.484 17.813 l-11.406 -17.813 l-7.0313 0 l0 37.188 l6.5625 0 l0 -26.406 l11.719 17.578 l0.23438 0 l10.234 -15.156 c0.052109 -0.20836 2.7865 -4.6094 8.2031 -13.203 z M63.281 7.5 l11.797 0 l0 -6.0938 l-30.156 0 l0 6.0938 l18.359 0 z M56.719 13.594000000000001 l6.5625 0 l0 25 l-6.5625 0 l0 -25 z  M118.75005 1.4059999999999988 l6.4063 0 l0 31.25 l19.531 0 l0 5.9375 l-25.938 0 l0 -37.188 z M174.99975 16.875 l0 -15.547 l-6.5625 0 l0 37.344 l6.5625 0 l0 -21.797 z M226.32775 25 c-0.36461 -0.98961 -0.88531 -1.8488 -1.5624 -2.578 c-0.46875 -0.52086 -1.224 -1.1198 -2.2656 -1.797 c-1.1459 -0.57289 -2.1615 -1.0156 -3.0469 -1.3281 c0.625 -0.36461 1.3021 -0.78125 2.0313 -1.25 c0.72914 -0.625 1.276 -1.224 1.6406 -1.7969 c0.46875 -0.625 0.85938 -1.3802 1.1719 -2.2656 c0.3125 -0.9375 0.46875 -1.9531 0.46875 -3.0469 c0 -2.9166 -1.0938 -5.2344 -3.2813 -6.9531 s-5.1563 -2.5781 -8.9063 -2.5781 l-14.453 0 l0 5.7813 l13.672 0 c1.9791 0 3.5938 0.41664 4.8438 1.25 c1.0938 0.83336 1.6406 2.0313 1.6406 3.5938 c0 1.7709 -0.625 3.0469 -1.875 3.8281 c-1.3021 0.83336 -2.9948 1.25 -5.0782 1.25 l-13.203 0 l0 5.4688 l14.609 0 c2.5 0 4.401 0.44273 5.7031 1.3281 c1.25 0.9375 1.875 2.1875 1.875 3.75 c0 1.6666 -0.625 2.9427 -1.875 3.828 c-1.3021 0.88539 -3.0469 1.3281 -5.2344 1.3281 l-15.078 0 l0 5.7813 l15 0 c2.0313 0 3.9063 -0.23438 5.625 -0.70313 c1.7709 -0.52086 3.2031 -1.1719 4.2969 -1.9531 s2.0313 -1.849 2.8125 -3.2031 c0.625 -1.25 0.9375 -2.7084 0.9375 -4.375 c0 -1.3021 -0.15625 -2.4219 -0.46875 -3.3594 z"></path>
    </g>
</svg>